<svg width="147" height="22" fill="none" xmlns="http://www.w3.org/2000/svg"><path d="M0 1.524C0 1.056.144.69.432.427.742.142 1.152 0 1.66 0c.51 0 .908.142 1.196.427.31.264.465.63.465 1.097 0 .467-.155.843-.465 1.127-.288.284-.687.427-1.196.427-.51 0-.92-.143-1.23-.427C.145 2.367 0 1.991 0 1.524zm2.824 4.875v15.235H.266V6.4h2.558zm3.479 0H8.76V3.382h2.525V6.4h3.886v2.1h-3.886v8.837c0 .955.232 1.584.697 1.89.487.304 1.063.456 1.728.456.354 0 .72-.02 1.096-.06a23.79 23.79 0 011.096-.153v2.346a11.57 11.57 0 01-2.026.183 6.433 6.433 0 01-2.126-.335 4.016 4.016 0 01-1.661-1.006c-.465-.487-.83-1.117-1.097-1.889-.243-.772-.365-1.716-.365-2.834V11.58l.665-3.08h-2.99V6.4z" fill="#CDEA68"/><path d="M20.898 6.399c0-1.117.122-2.062.366-2.834.266-.772.631-1.391 1.096-1.859A3.875 3.875 0 0124.021.67a6.434 6.434 0 012.126-.335c.665 0 1.34.061 2.027.183v2.346l-1.097-.122a6.859 6.859 0 00-1.096-.091c-.664 0-1.24.152-1.727.457-.466.305-.698.934-.698 1.89v1.4h3.887v2.103h-3.887v13.133h-2.658v-9.72l.665-3.413h-2.99V6.4h2.325zm18.861 0v2.133h-2.027c-.575 0-1.118.132-1.627.396a4.11 4.11 0 00-1.296 1.127 5.9 5.9 0 00-.864 1.676 6.956 6.956 0 00-.299 2.103v7.8H30.99V6.4h2.657v.762l-.73 3.351h.73c.377-1.422.93-2.458 1.661-3.108.753-.67 1.728-1.005 2.924-1.005h1.528zm4.393 6.368l-.199.366.83.884c0 1.889.377 3.331 1.13 4.326.753.976 2.07 1.463 3.953 1.463a5.28 5.28 0 001.794-.335c.642-.244 1.35-.762 2.126-1.554l1.628 1.676a8.333 8.333 0 01-1.595 1.219 8.716 8.716 0 01-1.528.73 6.248 6.248 0 01-1.461.306c-.466.06-.92.091-1.362.091-1.196 0-2.248-.193-3.156-.579a6.725 6.725 0 01-2.326-1.615 7.511 7.511 0 01-1.428-2.498c-.31-.976-.465-2.052-.465-3.23 0-1.179.166-2.245.498-3.2.354-.975.853-1.808 1.495-2.498a6.793 6.793 0 012.392-1.646c.93-.386 1.993-.579 3.189-.579 1.063 0 2.015.183 2.857.549.863.345 1.572.853 2.126 1.523.553.65.94 1.432 1.162 2.346.244.915.288 1.93.133 3.048h-9.202l-2.59-.793zm9.136-1.097c0-.365-.045-.761-.133-1.188a3.068 3.068 0 00-.498-1.158c-.244-.345-.598-.63-1.063-.853-.443-.244-1.03-.366-1.761-.366-.775 0-1.44.082-1.993.244a3.995 3.995 0 00-1.362.7 3.725 3.725 0 00-.93 1.128 7.138 7.138 0 00-.532 1.493h8.272zm7.799 1.097l-.2.366.83.884c0 1.889.377 3.331 1.13 4.326.753.976 2.07 1.463 3.953 1.463a5.28 5.28 0 001.794-.335c.642-.244 1.351-.762 2.126-1.554l1.628 1.676a8.333 8.333 0 01-1.595 1.219 8.72 8.72 0 01-1.528.73 6.249 6.249 0 01-1.461.306c-.465.06-.92.091-1.362.091-1.196 0-2.248-.193-3.156-.579a6.724 6.724 0 01-2.326-1.615 7.51 7.51 0 01-1.428-2.498c-.31-.976-.465-2.052-.465-3.23 0-1.179.166-2.245.498-3.2.355-.975.853-1.808 1.495-2.498a6.791 6.791 0 012.392-1.646c.93-.386 1.993-.579 3.189-.579 1.063 0 2.015.183 2.857.549.864.345 1.572.853 2.126 1.523.553.65.941 1.432 1.162 2.346.244.915.288 1.93.133 3.048h-9.201l-2.591-.793zm9.135-1.097c0-.365-.044-.761-.133-1.188a3.068 3.068 0 00-.498-1.158c-.244-.345-.598-.63-1.063-.853-.443-.244-1.03-.366-1.761-.366-.775 0-1.44.082-1.993.244a3.993 3.993 0 00-1.362.7 3.725 3.725 0 00-.93 1.128 7.138 7.138 0 00-.532 1.493h8.272zM79.516.305v21.33h-2.558V.608l2.558-.304zm4.747 7.069c.73-.406 1.572-.721 2.525-.945.952-.223 1.794-.335 2.524-.335.997 0 1.86.102 2.591.305.753.203 1.385.477 1.894.823.51.325.93.7 1.262 1.127.333.427.587.863.764 1.31.421 1.036.576 2.225.466 3.565v8.41H93.63v-.975l.83-3.169h-.797c-.088.772-.299 1.443-.631 2.011a4.397 4.397 0 01-1.196 1.372 5.17 5.17 0 01-1.66.822 6.441 6.441 0 01-1.894.274 7.62 7.62 0 01-2.093-.274 5.133 5.133 0 01-1.694-.822 4.152 4.152 0 01-1.097-1.402c-.265-.569-.398-1.23-.398-1.98 0-.854.155-1.595.465-2.225.31-.63.653-1.148 1.03-1.554a6.78 6.78 0 011.495-1.188h7.64c0-1.544-.354-2.641-1.063-3.291-.709-.67-1.694-1.006-2.957-1.006-.93 0-1.727.102-2.391.305a22.38 22.38 0 00-1.828.64l-1.129-1.798zm9.368 7.008h-6.578c-.642.61-1.063 1.27-1.262 1.98-.177.692-.166 1.331.033 1.92.2.57.576 1.037 1.13 1.402.553.346 1.262.478 2.126.396 1.174-.101 2.07-.396 2.69-.883.62-.508 1.075-1.036 1.363-1.585.31-.63.476-1.34.498-2.133v-1.097zm21.222 7.252h-2.658v-8.958a6.98 6.98 0 00-.199-1.707 3.205 3.205 0 00-.631-1.37c-.288-.407-.687-.722-1.196-.945-.51-.224-1.141-.335-1.894-.335-.908 0-1.672.142-2.292.426-.62.285-1.118.68-1.495 1.189-.354.487-.609 1.066-.764 1.736a9.59 9.59 0 00-.232 2.164v7.8h-2.658V6.4h2.658v.762l-.731 3.351h.731c.376-1.462.974-2.56 1.794-3.29.841-.752 2.07-1.128 3.687-1.128.93 0 1.761.163 2.491.488a4.93 4.93 0 011.827 1.37c.51.57.897 1.25 1.163 2.042.266.793.399 1.646.399 2.56v9.08zm15.542-.761c-.553.304-1.251.558-2.092.761a9.927 9.927 0 01-2.392.305c-1.329 0-2.492-.193-3.488-.579-.975-.386-1.794-.924-2.459-1.615a6.966 6.966 0 01-1.494-2.498c-.311-.976-.466-2.052-.466-3.23 0-1.179.155-2.245.466-3.2.332-.975.83-1.808 1.494-2.498.665-.711 1.484-1.26 2.459-1.646.996-.386 2.159-.579 3.488-.579.775 0 1.583.102 2.425.305.841.203 1.528.457 2.059.762l-1.328 1.737a2.46 2.46 0 00-.665-.275 5.24 5.24 0 00-.864-.243c-.31-.061-.609-.112-.896-.153a5.378 5.378 0 00-.731-.06c-.997 0-1.827.152-2.492.456-.664.305-1.196.721-1.594 1.25a5.08 5.08 0 00-.864 1.858 10.716 10.716 0 00-.233 2.286c0 .812.078 1.574.233 2.285a5.08 5.08 0 00.864 1.859c.398.528.93.944 1.594 1.249.665.305 1.495.457 2.492.457.42 0 .941-.071 1.561-.213.642-.142 1.174-.346 1.595-.61l1.328 1.829zm4.722-8.106l-.2.366.831.884c0 1.889.376 3.331 1.129 4.326.753.976 2.071 1.463 3.953 1.463a5.28 5.28 0 001.794-.335c.642-.244 1.351-.762 2.126-1.554l1.628 1.676a8.331 8.331 0 01-1.594 1.219 8.723 8.723 0 01-1.529.73 6.243 6.243 0 01-1.461.306c-.465.06-.919.091-1.362.091-1.196 0-2.248-.193-3.156-.579a6.72 6.72 0 01-2.325-1.615 7.494 7.494 0 01-1.429-2.498c-.31-.976-.465-2.052-.465-3.23 0-1.179.166-2.245.498-3.2.355-.975.853-1.808 1.495-2.498a6.8 6.8 0 012.392-1.646c.93-.386 1.993-.579 3.189-.579 1.063 0 2.015.183 2.857.549.864.345 1.572.853 2.126 1.523.554.65.941 1.432 1.163 2.346.243.915.288 1.93.133 3.048h-9.202l-2.591-.793zm9.135-1.097a5.84 5.84 0 00-.133-1.188 3.067 3.067 0 00-.498-1.158c-.244-.345-.598-.63-1.063-.853-.443-.244-1.03-.366-1.761-.366-.775 0-1.439.082-1.993.244a3.995 3.995 0 00-1.362.7 3.74 3.74 0 00-.93 1.128 7.116 7.116 0 00-.532 1.493h8.272z" fill="#212121"/></svg>